<svg width="32" height="32" viewBox="0 0 32 32" fill="none" xmlns="http://www.w3.org/2000/svg">
<path d="M10.3627 3.25201L11.7974 2.79334C13.1427 2.36401 14.5801 3.05868 15.1561 4.41601L16.3027 7.12001C16.8014 8.29734 16.5241 9.68268 15.6174 10.544L13.0907 12.9413C13.2467 14.376 13.7294 15.788 14.5374 17.1773C15.3047 18.5215 16.3339 19.6981 17.5641 20.6373L20.5987 19.624C21.7481 19.2413 23.0014 19.6827 23.7054 20.7187L25.3494 23.132C26.1694 24.3373 26.0214 25.9987 25.0041 27.02L23.9147 28.1147C22.8294 29.204 21.2787 29.6 19.8454 29.152C16.4587 28.096 13.3481 24.9613 10.5081 19.748C7.66405 14.5267 6.66005 10.0947 7.49739 6.45734C7.84939 4.92668 8.93872 3.70668 10.3627 3.25201Z" fill="#EBEBEB"/>
</svg>
