<svg width="100" height="100" viewBox="0 0 100 100" fill="none" xmlns="http://www.w3.org/2000/svg">
<path d="M91.7187 57.75L85.8984 50.0156C85.9375 49.3125 85.8984 48.5703 85.8984 48.0234L91.7187 40.25C92.0082 39.8717 92.2049 39.4308 92.2931 38.9627C92.3813 38.4946 92.3585 38.0124 92.2266 37.5547C91.2421 33.9533 89.8118 30.489 87.9687 27.2422C87.7309 26.8297 87.4042 26.4755 87.0123 26.2052C86.6204 25.9349 86.1731 25.7554 85.7031 25.6797L76.1328 24.3125L74.6875 22.8672L73.3203 13.2969C73.2446 12.8268 73.0651 12.3796 72.7948 11.9877C72.5245 11.5958 72.1702 11.269 71.7578 11.0312C68.5109 9.18823 65.0466 7.75789 61.4453 6.77344C60.9876 6.64151 60.5054 6.61872 60.0373 6.70691C59.5692 6.79511 59.1283 6.99181 58.75 7.28125L51.0156 13.0625H48.9844L41.25 7.28125C40.8717 6.99181 40.4308 6.79511 39.9627 6.70691C39.4946 6.61872 39.0124 6.64151 38.5547 6.77344C34.9533 7.75789 31.489 9.18823 28.2422 11.0312C27.8297 11.269 27.4755 11.5958 27.2052 11.9877C26.9349 12.3796 26.7554 12.8268 26.6797 13.2969L25.3125 22.8672L23.8672 24.3125L14.2969 25.6797C13.8268 25.7554 13.3796 25.9349 12.9877 26.2052C12.5958 26.4755 12.269 26.8297 12.0312 27.2422C10.1882 30.489 8.75789 33.9533 7.77344 37.5547C7.64151 38.0124 7.61872 38.4946 7.70691 38.9627C7.79511 39.4308 7.99181 39.8717 8.28125 40.25L14.1016 47.9844V49.9766L8.28125 57.75C7.99181 58.1283 7.79511 58.5692 7.70691 59.0373C7.61872 59.5054 7.64151 59.9876 7.77344 60.4453C8.75789 64.0466 10.1882 67.5109 12.0312 70.7578C12.269 71.1702 12.5958 71.5245 12.9877 71.7948C13.3796 72.0651 13.8268 72.2446 14.2969 72.3203L23.8672 73.6875L25.3125 75.1328L26.6797 84.7031C26.7554 85.1731 26.9349 85.6204 27.2052 86.0123C27.4755 86.4042 27.8297 86.7309 28.2422 86.9687C31.489 88.8118 34.9533 90.2421 38.5547 91.2266C38.8213 91.3038 39.0974 91.3432 39.375 91.3437C40.0526 91.3526 40.7132 91.1323 41.25 90.7187L48.9844 84.9375H51.0156L58.75 90.7187C59.1283 91.0082 59.5692 91.2049 60.0373 91.2931C60.5054 91.3813 60.9876 91.3585 61.4453 91.2266C65.0466 90.2421 68.5109 88.8118 71.7578 86.9687C72.1702 86.7309 72.5245 86.4042 72.7948 86.0123C73.0651 85.6204 73.2446 85.1731 73.3203 84.7031L74.6875 75.0937C75.1562 74.625 75.7031 74.1172 76.0937 73.6875L85.7031 72.3203C86.1731 72.2446 86.6204 72.0651 87.0123 71.7948C87.4042 71.5245 87.7309 71.1702 87.9687 70.7578C89.8118 67.5109 91.2421 64.0466 92.2266 60.4453C92.3585 59.9876 92.3813 59.5054 92.2931 59.0373C92.2049 58.5692 92.0082 58.1283 91.7187 57.75ZM50 66.1875C46.6006 66.1875 43.2776 65.1795 40.4511 63.2909C37.6247 61.4023 35.4217 58.718 34.1208 55.5774C32.8199 52.4368 32.4796 48.9809 33.1427 45.6469C33.8059 42.3128 35.4429 39.2503 37.8466 36.8466C40.2503 34.4429 43.3128 32.8059 46.6469 32.1427C49.9809 31.4796 53.4368 31.8199 56.5774 33.1208C59.718 34.4217 62.4023 36.6247 64.2909 39.4511C66.1795 42.2776 67.1875 45.6006 67.1875 49C67.1875 53.5584 65.3767 57.9301 62.1534 61.1534C58.9301 64.3767 54.5584 66.1875 50 66.1875Z" fill="#CB130B"/>
</svg>
