<svg width="124" height="124" viewBox="0 0 124 124" fill="none" xmlns="http://www.w3.org/2000/svg">
<path d="M62 31.5313C55.9739 31.5313 50.083 33.3182 45.0725 36.6662C40.0619 40.0141 36.1567 44.7727 33.8506 50.3401C31.5445 55.9076 30.9411 62.0338 32.1167 67.9442C33.2924 73.8545 36.1942 79.2835 40.4553 83.5447C44.7165 87.8058 50.1455 90.7077 56.0559 91.8833C61.9662 93.059 68.0925 92.4556 73.6599 90.1495C79.2273 87.8433 83.9859 83.9381 87.3338 78.9275C90.6818 73.917 92.4688 68.0262 92.4688 62C92.4688 53.9192 89.2587 46.1693 83.5447 40.4553C77.8307 34.7413 70.0808 31.5313 62 31.5313ZM62 87.7812C56.901 87.7812 51.9164 86.2692 47.6767 83.4363C43.437 80.6034 40.1326 76.577 38.1812 71.8661C36.2299 67.1552 35.7194 61.9714 36.7141 56.9703C37.7089 51.9693 40.1643 47.3755 43.7699 43.7699C47.3755 40.1643 51.9693 37.7089 56.9703 36.7141C61.9714 35.7194 67.1552 36.2299 71.8661 38.1812C76.577 40.1326 80.6035 43.437 83.4363 47.6767C86.2692 51.9164 87.7813 56.901 87.7813 62C87.7813 68.8376 85.065 75.3952 80.2301 80.2301C75.3952 85.065 68.8376 87.7812 62 87.7812ZM122.703 76.5313L113.504 64.2852C113.563 62.7617 113.504 60.8281 113.504 59.7734L122.703 47.4688C122.91 47.1851 123.053 46.8606 123.124 46.517C123.194 46.1734 123.191 45.8187 123.113 45.4766C121.706 40.2272 119.618 35.1845 116.902 30.4766C116.715 30.1807 116.466 29.9284 116.173 29.7364C115.88 29.5444 115.549 29.4172 115.203 29.3633L100.027 27.1953C99.0125 26.0633 97.9367 24.9875 96.8047 23.9727L94.6367 8.79688C94.5828 8.45073 94.4556 8.12008 94.2636 7.82704C94.0716 7.534 93.8193 7.28533 93.5235 7.09766C88.8262 4.40283 83.8055 2.31581 78.582 0.886725C78.2305 0.808029 77.8664 0.803868 77.5132 0.874513C77.16 0.945157 76.8255 1.08904 76.5313 1.29688L64.2852 10.4961C62.7617 10.457 61.2383 10.457 59.7149 10.4961L47.4688 1.29688C47.1851 1.09047 46.8606 0.947095 46.517 0.876356C46.1734 0.805616 45.8187 0.809151 45.4766 0.886725C40.2272 2.29438 35.1845 4.38239 30.4766 7.09766C30.1807 7.28533 29.9284 7.534 29.7364 7.82704C29.5444 8.12008 29.4172 8.45073 29.3633 8.79688L27.1953 23.9727C26.0633 24.9875 24.9875 26.0633 23.9727 27.1953L8.79689 29.3633C8.45073 29.4172 8.12008 29.5444 7.82704 29.7364C7.53401 29.9284 7.28534 30.1807 7.09767 30.4766C4.39248 35.1894 2.30503 40.2308 0.88673 45.4766C0.809156 45.8187 0.805621 46.1734 0.876361 46.517C0.9471 46.8606 1.09048 47.1851 1.29689 47.4688L10.4961 59.7149C10.4375 61.2383 10.4961 63.1719 10.4961 64.2266L1.29689 76.5313C1.09048 76.8149 0.9471 77.1394 0.876361 77.483C0.805621 77.8266 0.809156 78.1813 0.88673 78.5234C2.32008 83.764 4.40676 88.8036 7.09767 93.5234C7.28534 93.8193 7.53401 94.0716 7.82704 94.2636C8.12008 94.4556 8.45073 94.5828 8.79689 94.6367L23.9727 96.8047C24.9875 97.9367 26.0633 99.0125 27.1953 100.027L29.3633 115.203C29.4172 115.549 29.5444 115.88 29.7364 116.173C29.9284 116.466 30.1807 116.715 30.4766 116.902C35.1894 119.608 40.2309 121.695 45.4766 123.113H46.0625C46.569 123.109 47.0611 122.945 47.4688 122.645L59.7149 113.445H64.2852L76.5313 122.645C76.8149 122.851 77.1394 122.994 77.483 123.065C77.8266 123.136 78.1813 123.132 78.5234 123.055C83.7728 121.647 88.8155 119.559 93.5235 116.844C93.8193 116.656 94.0716 116.407 94.2636 116.114C94.4556 115.821 94.5828 115.491 94.6367 115.145L96.8047 99.9688L100.027 96.7461L115.203 94.5781C115.549 94.5242 115.88 94.397 116.173 94.205C116.466 94.013 116.715 93.7607 116.902 93.4648C119.608 88.752 121.695 83.7106 123.113 78.4649C123.182 78.1317 123.181 77.7879 123.111 77.4551C123.04 77.1223 122.901 76.8077 122.703 76.5313ZM113.387 90.1836L98.5039 92.293C97.993 92.383 97.5224 92.6286 97.1563 92.9961C97.1563 93.0547 94.4609 95.8672 93.0547 97.0977C92.6354 97.4559 92.364 97.957 92.293 98.5039L90.1836 113.387C86.4506 115.44 82.5005 117.071 78.4063 118.25L66.3945 109.227C65.9515 108.913 65.4115 108.768 64.8711 108.816H59.1289C58.5885 108.768 58.0485 108.913 57.6055 109.227L45.5938 118.25C41.4996 117.071 37.5494 115.44 33.8164 113.387L31.707 98.5039C31.6361 97.957 31.3646 97.4559 30.9453 97.0977C29.5112 95.8393 28.1607 94.4888 26.9024 93.0547C26.5441 92.6354 26.043 92.364 25.4961 92.293L10.6133 90.1836C8.55986 86.4506 6.92871 82.5005 5.75001 78.4062L14.7734 66.3945C15.0751 65.9653 15.2386 65.4543 15.2422 64.9297C15.2422 64.8711 15.125 61.0039 15.1836 59.1289C15.2321 58.5885 15.0867 58.0485 14.7734 57.6055L5.75001 45.5938C6.92871 41.4996 8.55986 37.5494 10.6133 33.8164L25.4961 31.707C26.043 31.6361 26.5441 31.3646 26.9024 30.9453C28.1607 29.5112 29.5112 28.1607 30.9453 26.9023C31.3646 26.5441 31.6361 26.043 31.707 25.4961L33.8164 10.6133C37.5494 8.55986 41.4996 6.9287 45.5938 5.75001L57.6055 14.7734C58.0485 15.0867 58.5885 15.2321 59.1289 15.1836C61.0625 15.125 62.9375 15.125 64.8711 15.1836C65.4115 15.2321 65.9515 15.0867 66.3945 14.7734L78.4063 5.75001C82.5005 6.9287 86.4506 8.55986 90.1836 10.6133L92.293 25.4961C92.364 26.043 92.6354 26.5441 93.0547 26.9023C94.4888 28.1607 95.8393 29.5112 97.0977 30.9453C97.4559 31.3646 97.957 31.6361 98.5039 31.707L113.387 33.8164C115.44 37.5494 117.071 41.4996 118.25 45.5938L109.227 57.6055C108.925 58.0347 108.761 58.5457 108.758 59.0703C108.758 59.1289 108.875 62.9961 108.816 64.8711C108.768 65.4115 108.913 65.9515 109.227 66.3945L118.25 78.4062C117.071 82.5005 115.44 86.4506 113.387 90.1836Z" fill="#1C3144"/>
</svg>
