<svg width="10" height="8" viewBox="0 0 10 8" fill="none" xmlns="http://www.w3.org/2000/svg">
<path d="M5.41133 7.2845L9.91133 0.784505C9.96324 0.709492 9.99363 0.621709 9.99922 0.530662C10.0048 0.439614 9.98539 0.348771 9.94306 0.267969C9.90073 0.187167 9.8371 0.119486 9.75906 0.0722532C9.68102 0.0250201 9.59155 3.57628e-05 9.50033 4.76837e-06L0.500331 4.76837e-06C0.40907 -5.57899e-05 0.319532 0.0248623 0.241422 0.0720587C0.163312 0.119255 0.0996093 0.18693 0.0572171 0.267748C0.0148249 0.348566 -0.0046396 0.439445 0.000933236 0.530537C0.00650607 0.621628 0.0369036 0.709457 0.0888315 0.784505L4.58883 7.2845C4.63505 7.35073 4.69657 7.40481 4.76817 7.44215C4.83977 7.47949 4.91933 7.49899 5.00008 7.49899C5.08083 7.49899 5.16039 7.47949 5.23199 7.44215C5.30359 7.40481 5.36512 7.35073 5.41133 7.2845Z" fill="white"/>
</svg>
