<svg width="44" height="44" viewBox="0 0 44 44" fill="none" xmlns="http://www.w3.org/2000/svg">
<path d="M22 16.4396C20.9003 16.4396 19.8252 16.7657 18.9108 17.3767C17.9964 17.9877 17.2837 18.8561 16.8628 19.8721C16.442 20.8882 16.3319 22.0062 16.5464 23.0848C16.761 24.1634 17.2906 25.1542 18.0682 25.9318C18.8458 26.7095 19.8366 27.2391 20.9152 27.4536C21.9939 27.6682 23.1119 27.5581 24.1279 27.1372C25.144 26.7163 26.0124 26.0036 26.6234 25.0892C27.2344 24.1748 27.5605 23.0998 27.5605 22C27.5605 20.5253 26.9746 19.111 25.9318 18.0682C24.8891 17.0254 23.4747 16.4396 22 16.4396ZM22 26.1099C21.1872 26.1099 20.3926 25.8689 19.7167 25.4173C19.0408 24.9657 18.514 24.3238 18.203 23.5728C17.8919 22.8218 17.8105 21.9955 17.9691 21.1982C18.1277 20.401 18.5191 19.6687 19.0939 19.0939C19.6687 18.5191 20.401 18.1277 21.1982 17.9691C21.9955 17.8105 22.8218 17.8919 23.5728 18.203C24.3238 18.514 24.9657 19.0408 25.4173 19.7167C25.8689 20.3926 26.1099 21.1872 26.1099 22C26.1067 23.0891 25.6727 24.1326 24.9026 24.9026C24.1326 25.6727 23.0891 26.1067 22 26.1099ZM27.3187 10.1539H16.6813C14.9501 10.1539 13.2899 10.8416 12.0657 12.0657C10.8416 13.2899 10.1539 14.9501 10.1539 16.6813V27.3187C10.1539 29.0499 10.8416 30.7102 12.0657 31.9343C13.2899 33.1585 14.9501 33.8462 16.6813 33.8462H27.3187C29.0499 33.8462 30.7102 33.1585 31.9343 31.9343C33.1585 30.7102 33.8462 29.0499 33.8462 27.3187V16.6813C33.8462 14.9501 33.1585 13.2899 31.9343 12.0657C30.7102 10.8416 29.0499 10.1539 27.3187 10.1539ZM32.3956 27.3187C32.3956 28.6652 31.8607 29.9565 30.9086 30.9086C29.9565 31.8607 28.6652 32.3956 27.3187 32.3956H16.6813C15.3349 32.3956 14.0435 31.8607 13.0914 30.9086C12.1393 29.9565 11.6044 28.6652 11.6044 27.3187V16.6813C11.6044 15.3349 12.1393 14.0435 13.0914 13.0914C14.0435 12.1393 15.3349 11.6044 16.6813 11.6044H27.3187C28.6652 11.6044 29.9565 12.1393 30.9086 13.0914C31.8607 14.0435 32.3956 15.3349 32.3956 16.6813V27.3187ZM29.4945 15.7143C29.4945 15.9534 29.4236 16.1871 29.2908 16.3859C29.158 16.5847 28.9692 16.7396 28.7483 16.8311C28.5274 16.9226 28.2844 16.9465 28.0499 16.8999C27.8154 16.8532 27.6 16.7381 27.431 16.5691C27.2619 16.4 27.1468 16.1846 27.1002 15.9501C27.0535 15.7157 27.0775 15.4726 27.169 15.2517C27.2605 15.0308 27.4154 14.8421 27.6142 14.7092C27.813 14.5764 28.0467 14.5055 28.2857 14.5055C28.6063 14.5055 28.9138 14.6329 29.1405 14.8596C29.3672 15.0863 29.4945 15.3937 29.4945 15.7143Z" fill="#EBEBEB"/>
<circle cx="22" cy="22" r="21.5" stroke="#EBEBEB"/>
</svg>
